{
  "accessors": [
    {
      "bufferView": 2,
      "componentType": 5126,
      "count": 3590,
      "max": [
        -1.4018419981002808,
        1.5346980094909668,
        0.1720680445432663
      ],
      "min": [
        -2.1255509853363037,
        -1.5123478174209595,
        -0.46745195984840393
      ],
      "type": "VEC3"
    },
    {
      "bufferView": 2,
      "byteOffset": 43080,
      "componentType": 5126,
      "count": 3590,
      "max": [
        0.9999252557754517,
        0.9995964169502258,
        0.9999995231628418
      ],
      "min": [
        -0.9999960660934448,
        -0.9999383091926575,
        -0.9999964237213135
      ],
      "type": "VEC3"
    },
    {
      "bufferView": 3,
      "componentType": 5126,
      "count": 3590,
      "max": [
        0.9999182820320129,
        0.9999828338623047,
        0.9999831318855286,
        1.0
      ],
      "min": [
        -0.9999184012413025,
        -0.9999893307685852,
        -0.9999859929084778,
        -1.0
      ],
      "type": "VEC4"
    },
    {
      "bufferView": 1,
      "componentType": 5126,
      "count": 3590,
      "max": [
        0.999998927116394,
        0.9999989867210388
      ],
      "min": [
        1.0021030902862549e-06,
        0.01436549425125122
      ],
      "type": "VEC2"
    },
    {
      "bufferView": 1,
      "byteOffset": 28720,
      "componentType": 5126,
      "count": 3590,
      "max": [
        0.999998927116394,
        0.9999989867210388
      ],
      "min": [
        1.0021030902862549e-06,
        0.01436549425125122
      ],
      "type": "VEC2"
    },
    {
      "bufferView": 1,
      "byteOffset": 57440,
      "componentType": 5126,
      "count": 3590,
      "max": [
        0.999998927116394,
        0.9999989867210388
      ],
      "min": [
        1.0021030902862549e-06,
        0.01436549425125122
      ],
      "type": "VEC2"
    },
    {
      "bufferView": 1,
      "byteOffset": 86160,
      "componentType": 5126,
      "count": 3590,
      "max": [
        0.999998927116394,
        0.9999989867210388
      ],
      "min": [
        1.0021030902862549e-06,
        0.01436549425125122
      ],
      "type": "VEC2"
    },
    {
      "bufferView": 0,
      "componentType": 5125,
      "count": 18240,
      "type": "SCALAR"
    },
    {
      "bufferView": 2,
      "byteOffset": 86160,
      "componentType": 5126,
      "count": 96,
      "max": [
        1.1839640140533447,
        -0.3285529911518097,
        -0.5102679133415222
      ],
      "min": [
        0.3105440139770508,
        -0.7804519534111023,
        -0.5810069441795349
      ],
      "type": "VEC3"
    },
    {
      "bufferView": 2,
      "byteOffset": 87312,
      "componentType": 5126,
      "count": 96,
      "max": [
        0.9995546936988831,
        0.720718502998352,
        0.06020117551088333
      ],
      "min": [
        -0.9995546936988831,
        -0.9984972476959229,
        -0.7654118537902832
      ],
      "type": "VEC3"
    },
    {
      "bufferView": 3,
      "byteOffset": 57440,
      "componentType": 5126,
      "count": 96,
      "max": [
        0.006038029678165913,
        0.9999760389328003,
        0.0714874118566513,
        -1.0
      ],
      "min": [
        -0.9999672174453735,
        -0.9999492764472961,
        -0.19298133254051208,
        -1.0
      ],
      "type": "VEC4"
    },
    {
      "bufferView": 1,
      "byteOffset": 114880,
      "componentType": 5126,
      "count": 96,
      "max": [
        0.24050913751125336,
        0.9981338977813721
      ],
      "min": [
        0.06248031184077263,
        0.7669723033905029
      ],
      "type": "VEC2"
    },
    {
      "bufferView": 1,
      "byteOffset": 115648,
      "componentType": 5126,
      "count": 96,
      "max": [
        0.24050913751125336,
        0.9981338977813721
      ],
      "min": [
        0.06248031184077263,
        0.7669723033905029
      ],
      "type": "VEC2"
    },
    {
      "bufferView": 1,
      "byteOffset": 116416,
      "componentType": 5126,
      "count": 96,
      "max": [
        0.24050913751125336,
        0.9981338977813721
      ],
      "min": [
        0.06248031184077263,
        0.7669723033905029
      ],
      "type": "VEC2"
    },
    {
      "bufferView": 1,
      "byteOffset": 117184,
      "componentType": 5126,
      "count": 96,
      "max": [
        0.24050913751125336,
        0.9981338977813721
      ],
      "min": [
        0.06248031184077263,
        0.7669723033905029
      ],
      "type": "VEC2"
    },
    {
      "bufferView": 0,
      "byteOffset": 72960,
      "componentType": 5125,
      "count": 240,
      "type": "SCALAR"
    },
    {
      "bufferView": 2,
      "byteOffset": 88464,
      "componentType": 5126,
      "count": 99,
      "max": [
        1.453366994857788,
        1.3119029998779297,
        -0.42428797483444214
      ],
      "min": [
        1.2426220178604126,
        1.0905729532241821,
        -0.5007059574127197
      ],
      "type": "VEC3"
    },
    {
      "bufferView": 2,
      "byteOffset": 89652,
      "componentType": 5126,
      "count": 99,
      "max": [
        0.9992475509643555,
        0.9997329115867615,
        0.01420058123767376
      ],
      "min": [
        -0.9984159469604492,
        -0.9942219257354736,
        -0.8597511053085327
      ],
      "type": "VEC3"
    },
    {
      "bufferView": 1,
      "byteOffset": 117952,
      "componentType": 5126,
      "count": 99,
      "max": [
        0.9804805517196655,
        0.9984792470932007
      ],
      "min": [
        0.0045023709535598755,
        1.0132789611816406e-06
      ],
      "type": "VEC2"
    },
    {
      "bufferView": 0,
      "byteOffset": 73920,
      "componentType": 5125,
      "count": 474,
      "type": "SCALAR"
    },
    {
      "bufferView": 2,
      "byteOffset": 90840,
      "componentType": 5126,
      "count": 1485,
      "max": [
        1.469967007637024,
        1.305601954460144,
        -0.4266809821128845
      ],
      "min": [
        0.1384660005569458,
        0.15566399693489075,
        -0.5734569430351257
      ],
      "type": "VEC3"
    },
    {
      "bufferView": 2,
      "byteOffset": 108660,
      "componentType": 5126,
      "count": 1485,
      "max": [
        0.9992475509643555,
        0.9997552037239075,
        0.01420058123767376
      ],
      "min": [
        -0.9984159469604492,
        -0.996495246887207,
        -0.8597511053085327
      ],
      "type": "VEC3"
    },
    {
      "bufferView": 1,
      "byteOffset": 118744,
      "componentType": 5126,
      "count": 1485,
      "max": [
        0.8324574828147888,
        0.9999989867210388
      ],
      "min": [
        9.835930541157722e-07,
        0.20520377159118652
      ],
      "type": "VEC2"
    },
    {
      "bufferView": 0,
      "byteOffset": 75816,
      "componentType": 5125,
      "count": 7110,
      "type": "SCALAR"
    },
    {
      "bufferView": 2,
      "byteOffset": 126480,
      "componentType": 5126,
      "count": 13947,
      "max": [
        1.6147329807281494,
        1.6337940692901611,
        0.17359502613544464
      ],
      "min": [
        -0.8298829793930054,
        -1.6382510662078857,
        -0.6496309638023376
      ],
      "type": "VEC3"
    },
    {
      "bufferView": 2,
      "byteOffset": 293844,
      "componentType": 5126,
      "count": 13947,
      "max": [
        1.0,
        0.9999539852142334,
        0.9999994039535522
      ],
      "min": [
        -1.0,
        -0.9999996423721313,
        -0.9999979734420776
      ],
      "type": "VEC3"
    },
    {
      "bufferView": 3,
      "byteOffset": 58976,
      "componentType": 5126,
      "count": 13947,
      "max": [
        1.0,
        0.9999520182609558,
        0.9999825954437256,
        -1.0
      ],
      "min": [
        -1.0,
        -0.9999995827674866,
        -0.999999463558197,
        -1.0
      ],
      "type": "VEC4"
    },
    {
      "bufferView": 1,
      "byteOffset": 130624,
      "componentType": 5126,
      "count": 13947,
      "max": [
        0.9867538809776306,
        0.9999989867210388
      ],
      "min": [
        9.909272193908691e-07,
        0.08331573009490967
      ],
      "type": "VEC2"
    },
    {
      "bufferView": 1,
      "byteOffset": 242200,
      "componentType": 5126,
      "count": 13947,
      "max": [
        0.9867538809776306,
        0.9999989867210388
      ],
      "min": [
        9.909272193908691e-07,
        0.08331573009490967
      ],
      "type": "VEC2"
    },
    {
      "bufferView": 1,
      "byteOffset": 353776,
      "componentType": 5126,
      "count": 13947,
      "max": [
        0.9867538809776306,
        0.9999989867210388
      ],
      "min": [
        9.909272193908691e-07,
        0.08331573009490967
      ],
      "type": "VEC2"
    },
    {
      "bufferView": 1,
      "byteOffset": 465352,
      "componentType": 5126,
      "count": 13947,
      "max": [
        0.9867538809776306,
        0.9999989867210388
      ],
      "min": [
        9.909272193908691e-07,
        0.08331573009490967
      ],
      "type": "VEC2"
    },
    {
      "bufferView": 0,
      "byteOffset": 104256,
      "componentType": 5125,
      "count": 73056,
      "type": "SCALAR"
    },
    {
      "bufferView": 2,
      "byteOffset": 461208,
      "componentType": 5126,
      "count": 169,
      "max": [
        1.422598958015442,
        -1.1118019819259644,
        -0.597879946231842
      ],
      "min": [
        0.05768400430679321,
        -1.4114980697631836,
        -0.6253779530525208
      ],
      "type": "VEC3"
    },
    {
      "bufferView": 2,
      "byteOffset": 463236,
      "componentType": 5126,
      "count": 169,
      "max": [
        0.017400823533535004,
        0.09630502760410309,
        -0.9953519701957703
      ],
      "min": [
        -0.016799554228782654,
        0.04860089346766472,
        -0.9988183379173279
      ],
      "type": "VEC3"
    },
    {
      "bufferView": 1,
      "byteOffset": 576928,
      "componentType": 5126,
      "count": 169,
      "max": [
        0.9688136577606201,
        0.999998927116394
      ],
      "min": [
        1.0579824447631836e-06,
        1.1324882507324219e-06
      ],
      "type": "VEC2"
    },
    {
      "bufferView": 0,
      "byteOffset": 396480,
      "componentType": 5125,
      "count": 864,
      "type": "SCALAR"
    },
    {
      "bufferView": 2,
      "byteOffset": 465264,
      "componentType": 5126,
      "count": 169,
      "max": [
        1.422598958015442,
        -1.1118019819259644,
        -0.597879946231842
      ],
      "min": [
        0.05768400430679321,
        -1.4114980697631836,
        -0.6253779530525208
      ],
      "type": "VEC3"
    },
    {
      "bufferView": 2,
      "byteOffset": 467292,
      "componentType": 5126,
      "count": 169,
      "max": [
        0.017400823533535004,
        0.09630502760410309,
        -0.9953519701957703
      ],
      "min": [
        -0.016799554228782654,
        0.04860089346766472,
        -0.9988183379173279
      ],
      "type": "VEC3"
    },
    {
      "bufferView": 1,
      "byteOffset": 578280,
      "componentType": 5126,
      "count": 169,
      "max": [
        0.9688136577606201,
        0.999998927116394
      ],
      "min": [
        1.0579824447631836e-06,
        1.1324882507324219e-06
      ],
      "type": "VEC2"
    },
    {
      "bufferView": 0,
      "byteOffset": 399936,
      "componentType": 5125,
      "count": 864,
      "type": "SCALAR"
    },
    {
      "bufferView": 2,
      "byteOffset": 469320,
      "componentType": 5126,
      "count": 278,
      "max": [
        1.5374739170074463,
        -0.12088200449943542,
        -0.5267979502677917
      ],
      "min": [
        -0.05977600812911987,
        -0.9728519916534424,
        -0.5900649428367615
      ],
      "type": "VEC3"
    },
    {
      "bufferView": 2,
      "byteOffset": 472656,
      "componentType": 5126,
      "count": 278,
      "max": [
        0.9981544017791748,
        0.9913915991783142,
        -0.045901261270046234
      ],
      "min": [
        -0.9987236857414246,
        -0.9399835467338562,
        -0.9997580647468567
      ],
      "type": "VEC3"
    },
    {
      "bufferView": 1,
      "byteOffset": 579632,
      "componentType": 5126,
      "count": 278,
      "max": [
        0.9999990463256836,
        0.9999989867210388
      ],
      "min": [
        1.0281801223754883e-06,
        0.43923550844192505
      ],
      "type": "VEC2"
    },
    {
      "bufferView": 0,
      "byteOffset": 403392,
      "componentType": 5125,
      "count": 1536,
      "type": "SCALAR"
    },
    {
      "bufferView": 2,
      "byteOffset": 475992,
      "componentType": 5126,
      "count": 432,
      "max": [
        1.5145457983016968,
        -1.0161590576171875,
        -0.5964149236679077
      ],
      "min": [
        -0.03684800863265991,
        -1.5029449462890625,
        -0.628667950630188
      ],
      "type": "VEC3"
    },
    {
      "bufferView": 2,
      "byteOffset": 481176,
      "componentType": 5126,
      "count": 432,
      "max": [
        0.08269642293453217,
        0.10540314018726349,
        -0.9942205548286438
      ],
      "min": [
        -0.08309882134199142,
        -0.05319914221763611,
        -0.9999964237213135
      ],
      "type": "VEC3"
    },
    {
      "bufferView": 1,
      "byteOffset": 581856,
      "componentType": 5126,
      "count": 432,
      "max": [
        0.9999988079071045,
        0.9999989867210388
      ],
      "min": [
        1.0132789611816406e-06,
        0.005773186683654785
      ],
      "type": "VEC2"
    },
    {
      "bufferView": 0,
      "byteOffset": 409536,
      "componentType": 5125,
      "count": 2304,
      "type": "SCALAR"
    }
  ],
  "asset": {
    "extras": {
      "author": "Blue31234 (https://sketchfab.com/aftab290sayyed)",
      "license": "CC-BY-4.0 (http://creativecommons.org/licenses/by/4.0/)",
      "source": "https://sketchfab.com/3d-models/telephone-baa19ed0eff344fd8b08a56ac3f40b80",
      "title": "telephone"
    },
    "generator": "Sketchfab-16.29.0",
    "version": "2.0"
  },
  "bufferViews": [
    {
      "buffer": 0,
      "byteLength": 418752,
      "name": "floatBufferViews",
      "target": 34963
    },
    {
      "buffer": 0,
      "byteLength": 585312,
      "byteOffset": 418752,
      "byteStride": 8,
      "name": "floatBufferViews",
      "target": 34962
    },
    {
      "buffer": 0,
      "byteLength": 486360,
      "byteOffset": 1004064,
      "byteStride": 12,
      "name": "floatBufferViews",
      "target": 34962
    },
    {
      "buffer": 0,
      "byteLength": 282128,
      "byteOffset": 1490424,
      "byteStride": 16,
      "name": "floatBufferViews",
      "target": 34962
    }
  ],
  "buffers": [
    {
      "byteLength": 1772552,
      "uri": "scene.bin"
    }
  ],
  "extensionsUsed": [
    "KHR_materials_transmission"
  ],
  "images": [
    {
      "uri": "textures/main.003_baseColor.png"
    },
    {
      "uri": "textures/main.003_metallicRoughness.png"
    },
    {
      "uri": "textures/main.003_normal.png"
    },
    {
      "uri": "textures/aiStandardSurface7.001_baseColor.png"
    }
  ],
  "materials": [
    {
      "doubleSided": true,
      "name": "main.003",
      "normalTexture": {
        "index": 2
      },
      "pbrMetallicRoughness": {
        "baseColorTexture": {
          "index": 0
        },
        "metallicFactor": 0.0,
        "metallicRoughnessTexture": {
          "index": 1
        }
      }
    },
    {
      "doubleSided": true,
      "name": "main.003_0",
      "normalTexture": {
        "index": 2
      },
      "pbrMetallicRoughness": {
        "baseColorTexture": {
          "index": 0
        },
        "metallicFactor": 0.0,
        "metallicRoughnessTexture": {
          "index": 1
        }
      }
    },
    {
      "doubleSided": true,
      "name": "red.001",
      "pbrMetallicRoughness": {
        "baseColorFactor": [
          0.316002,
          0.0,
          0.0043072300000000004,
          1.0
        ],
        "metallicFactor": 0.0,
        "roughnessFactor": 0.590909
      }
    },
    {
      "doubleSided": true,
      "name": "gray.001",
      "pbrMetallicRoughness": {
        "baseColorFactor": [
          0.00237488,
          0.00237488,
          0.00237488,
          1.0
        ],
        "metallicFactor": 0.0,
        "roughnessFactor": 0.5
      }
    },
    {
      "doubleSided": true,
      "name": "main.003_1",
      "normalTexture": {
        "index": 2
      },
      "pbrMetallicRoughness": {
        "baseColorTexture": {
          "index": 0
        },
        "metallicFactor": 0.0,
        "metallicRoughnessTexture": {
          "index": 1
        }
      }
    },
    {
      "alphaMode": "BLEND",
      "doubleSided": true,
      "extensions": {
        "KHR_materials_transmission": {
          "transmissionFactor": 1.0
        }
      },
      "name": "aiStandardSurface3.001",
      "pbrMetallicRoughness": {
        "baseColorFactor": [
          0.8,
          0.8,
          0.8,
          0.25
        ],
        "metallicFactor": 0.0,
        "roughnessFactor": 0.5
      }
    },
    {
      "doubleSided": true,
      "name": "aiStandardSurface3.002",
      "pbrMetallicRoughness": {
        "baseColorFactor": [
          0.0,
          0.0766573,
          0.0,
          1.0
        ],
        "metallicFactor": 0.0,
        "roughnessFactor": 0.5
      }
    },
    {
      "doubleSided": true,
      "name": "aiStandardSurface7.001",
      "pbrMetallicRoughness": {
        "baseColorTexture": {
          "index": 3
        },
        "metallicFactor": 0.0,
        "roughnessFactor": 0.5
      }
    },
    {
      "doubleSided": true,
      "name": "aiStandardSurface2.001",
      "pbrMetallicRoughness": {
        "baseColorFactor": [
          0.00515511,
          0.00515511,
          0.00515511,
          1.0
        ],
        "metallicFactor": 0.0,
        "roughnessFactor": 0.32152478940888196
      }
    }
  ],
  "meshes": [
    {
      "name": "Object_0",
      "primitives": [
        {
          "attributes": {
            "NORMAL": 1,
            "POSITION": 0,
            "TANGENT": 2,
            "TEXCOORD_0": 3,
            "TEXCOORD_1": 4,
            "TEXCOORD_2": 5,
            "TEXCOORD_3": 6
          },
          "indices": 7,
          "material": 0,
          "mode": 4
        }
      ]
    },
    {
      "name": "Object_1",
      "primitives": [
        {
          "attributes": {
            "NORMAL": 9,
            "POSITION": 8,
            "TANGENT": 10,
            "TEXCOORD_0": 11,
            "TEXCOORD_1": 12,
            "TEXCOORD_2": 13,
            "TEXCOORD_3": 14
          },
          "indices": 15,
          "material": 1,
          "mode": 4
        }
      ]
    },
    {
      "name": "Object_2",
      "primitives": [
        {
          "attributes": {
            "NORMAL": 17,
            "POSITION": 16,
            "TEXCOORD_0": 18
          },
          "indices": 19,
          "material": 2,
          "mode": 4
        }
      ]
    },
    {
      "name": "Object_3",
      "primitives": [
        {
          "attributes": {
            "NORMAL": 21,
            "POSITION": 20,
            "TEXCOORD_0": 22
          },
          "indices": 23,
          "material": 3,
          "mode": 4
        }
      ]
    },
    {
      "name": "Object_4",
      "primitives": [
        {
          "attributes": {
            "NORMAL": 25,
            "POSITION": 24,
            "TANGENT": 26,
            "TEXCOORD_0": 27,
            "TEXCOORD_1": 28,
            "TEXCOORD_2": 29,
            "TEXCOORD_3": 30
          },
          "indices": 31,
          "material": 4,
          "mode": 4
        }
      ]
    },
    {
      "name": "Object_5",
      "primitives": [
        {
          "attributes": {
            "NORMAL": 33,
            "POSITION": 32,
            "TEXCOORD_0": 34
          },
          "indices": 35,
          "material": 5,
          "mode": 4
        }
      ]
    },
    {
      "name": "Object_6",
      "primitives": [
        {
          "attributes": {
            "NORMAL": 37,
            "POSITION": 36,
            "TEXCOORD_0": 38
          },
          "indices": 39,
          "material": 6,
          "mode": 4
        }
      ]
    },
    {
      "name": "Object_7",
      "primitives": [
        {
          "attributes": {
            "NORMAL": 41,
            "POSITION": 40,
            "TEXCOORD_0": 42
          },
          "indices": 43,
          "material": 7,
          "mode": 4
        }
      ]
    },
    {
      "name": "Object_8",
      "primitives": [
        {
          "attributes": {
            "NORMAL": 45,
            "POSITION": 44,
            "TEXCOORD_0": 46
          },
          "indices": 47,
          "material": 8,
          "mode": 4
        }
      ]
    }
  ],
  "nodes": [
    {
      "children": [
        1
      ],
      "matrix": [
        1.0,
        0.0,
        0.0,
        0.0,
        0.0,
        2.220446049250313e-16,
        -1.0,
        0.0,
        0.0,
        1.0,
        2.220446049250313e-16,
        0.0,
        0.0,
        0.0,
        0.0,
        1.0
      ],
      "name": "Sketchfab_model"
    },
    {
      "children": [
        2
      ],
      "name": "root"
    },
    {
      "children": [
        3
      ],
      "matrix": [
        1.0,
        0.0,
        0.0,
        0.0,
        0.0,
        2.220446049250313e-16,
        1.0,
        0.0,
        0.0,
        -1.0,
        2.220446049250313e-16,
        0.0,
        0.0,
        0.0,
        0.0,
        1.0
      ],
      "name": "GLTF_SceneRootNode"
    },
    {
      "children": [
        4,
        6,
        8,
        13
      ],
      "matrix": [
        1.0,
        0.0,
        0.0,
        0.0,
        0.0,
        0.0,
        1.0,
        0.0,
        0.0,
        -1.0,
        0.0,
        0.0,
        -4.109971523284912,
        0.0,
        0.0,
        1.0
      ],
      "name": "t_mtl_obj_12"
    },
    {
      "children": [
        5
      ],
      "name": "pCube2.001_1"
    },
    {
      "mesh": 0,
      "name": "Object_5"
    },
    {
      "children": [
        7
      ],
      "name": "pCube9.001_2"
    },
    {
      "mesh": 1,
      "name": "Object_7"
    },
    {
      "children": [
        9,
        11
      ],
      "name": "pCylinder18.002_5"
    },
    {
      "children": [
        10
      ],
      "name": "pCylinder18.001_3"
    },
    {
      "mesh": 2,
      "name": "Object_10"
    },
    {
      "children": [
        12
      ],
      "name": "pCylinder18_1_4"
    },
    {
      "mesh": 3,
      "name": "Object_12"
    },
    {
      "children": [
        14,
        16,
        18,
        20,
        22
      ],
      "name": "polySurface1.002_11"
    },
    {
      "children": [
        15
      ],
      "name": "polySurface1.001_6"
    },
    {
      "mesh": 4,
      "name": "Object_15"
    },
    {
      "children": [
        17
      ],
      "name": "polySurface1_1_7"
    },
    {
      "mesh": 5,
      "name": "Object_17"
    },
    {
      "children": [
        19
      ],
      "matrix": [
        1.0,
        0.0,
        0.0,
        0.0,
        0.0,
        1.0,
        0.0,
        0.0,
        0.0,
        0.0,
        1.0,
        0.0,
        0.0,
        -0.009099094197154045,
        0.041093792766332626,
        1.0
      ],
      "name": "polySurface1_1.001_8"
    },
    {
      "mesh": 6,
      "name": "Object_19"
    },
    {
      "children": [
        21
      ],
      "name": "polySurface1_2_9"
    },
    {
      "mesh": 7,
      "name": "Object_21"
    },
    {
      "children": [
        23
      ],
      "name": "polySurface1_3_10"
    },
    {
      "mesh": 8,
      "name": "Object_23"
    }
  ],
  "samplers": [
    {
      "magFilter": 9729,
      "minFilter": 9987,
      "wrapS": 10497,
      "wrapT": 10497
    }
  ],
  "scene": 0,
  "scenes": [
    {
      "name": "Sketchfab_Scene",
      "nodes": [
        0
      ]
    }
  ],
  "textures": [
    {
      "sampler": 0,
      "source": 0
    },
    {
      "sampler": 0,
      "source": 1
    },
    {
      "sampler": 0,
      "source": 2
    },
    {
      "sampler": 0,
      "source": 3
    }
  ]
}
